<?xml version="1.0" standalone="no"?><!DOCTYPE svg PUBLIC "-//W3C//DTD SVG 1.1//EN" "http://www.w3.org/Graphics/SVG/1.1/DTD/svg11.dtd"><svg t="1659319334574" class="icon" viewBox="0 0 1024 1024" version="1.1" xmlns="http://www.w3.org/2000/svg" p-id="2251" xmlns:xlink="http://www.w3.org/1999/xlink" width="200" height="200"><defs><style type="text/css">@font-face { font-family: feedback-iconfont; src: url("//at.alicdn.com/t/font_1031158_u69w8yhxdu.woff2?t=1630033759944") format("woff2"), url("//at.alicdn.com/t/font_1031158_u69w8yhxdu.woff?t=1630033759944") format("woff"), url("//at.alicdn.com/t/font_1031158_u69w8yhxdu.ttf?t=1630033759944") format("truetype"); }
</style></defs><path d="M958.377608 158.818356c-2.482492-0.204742-253.756723-26.191568-428.416652-153.018743a30.112369 30.112369 0 0 0-17.909771-5.799306 30.291518 30.291518 0 0 0-17.90977 5.799306C320.41306 131.899956 68.207254 158.613615 65.724762 158.818356c-15.734391 1.448547-27.537743 14.598075-27.537743 30.332466 0 6.935621 0.619343 171.655347 56.733894 356.562593 33.234678 109.536749 79.096794 203.339107 136.55752 278.709604 72.780516 95.558017 164.100382 161.510401 271.251892 195.881395 3.004583 0.931574 6.106418 1.448547 9.315742 1.448547s6.316278-0.516973 9.213371-1.448547c107.258999-34.370994 198.471376-100.221007 271.251892-195.881395 57.358356-75.268126 103.322842-168.962995 136.55752-278.709604 56.01218-184.907246 56.733894-349.626971 56.733894-356.562593 0.112608-15.734391-11.685626-28.77643-27.425136-30.332466z m-34.166252 57.148496l-0.102371 1.658407c-3.004583 60.153078-13.871243 180.561606-53.217457 310.490617-69.054219 227.872268-189.565117 372.819075-358.220999 430.796773l-0.619344 0.204742-0.619343-0.204742c-168.133791-57.875328-288.542319-202.300044-357.806398-429.348227-41.204244-135.108973-51.144448-263.179955-53.632059-312.046653l-0.10237-1.658406 1.550917-0.204742c73.092747-10.661918 259.346169-46.384207 409.467819-147.429298l0.931574-0.726833 1.033945 0.726833c150.326392 101.045092 336.584932 136.76738 409.677679 147.531669l1.658407 0.20986z" fill="" p-id="2252"></path><path d="M641.765218 351.193552L467.013155 580.427351 378.037579 504.350496a29.559567 29.559567 0 0 0-19.092153-6.997044c-8.599147 0-16.793929 3.700704-22.393611 10.298502-10.498125 12.294732-9.095645 30.992758 3.301458 41.485764l112.669296 96.371865c5.200436 4.396826 12.397103 6.997044 19.59377 6.997044 0.900863 0 1.801726 0 2.69747-0.102371a29.426485 29.426485 0 0 0 20.29501-11.398988l193.644593-253.925635a28.919749 28.919749 0 0 0 5.696935-21.794742c-0.998115-7.795536-5.098066-14.695327-11.296617-19.496517-13.098343-9.991389-31.591627-7.493542-41.388512 5.405178z" fill="" p-id="2253"></path></svg>